<?xml version="1.0" standalone="no"?>
<!DOCTYPE svg PUBLIC "-//W3C//DTD SVG 20010904//EN"
 "http://www.w3.org/TR/2001/REC-SVG-20010904/DTD/svg10.dtd">
<svg version="1.0" xmlns="http://www.w3.org/2000/svg"
 width="260.000000pt" height="260.000000pt" viewBox="0 0 260.000000 260.000000"
 preserveAspectRatio="xMidYMid meet">
<metadata>
Created by potrace 1.11, written by Peter Selinger 2001-2013
</metadata>
<g transform="translate(0.000000,260.000000) scale(0.100000,-0.100000)"
fill="#000000" stroke="none">
<path d="M0 1300 l0 -1300 1300 0 1300 0 0 1300 0 1300 -1300 0 -1300 0 0
-1300z m2265 641 c63 -28 100 -63 132 -125 28 -56 53 -160 53 -228 l0 -48 -89
0 -89 0 -7 78 c-9 101 -19 133 -56 168 -27 26 -37 29 -99 29 -78 0 -110 -17
-145 -76 -19 -32 -20 -52 -20 -414 0 -369 1 -381 22 -427 28 -61 71 -88 138
-88 64 0 111 28 132 78 8 20 20 83 26 140 l11 102 88 0 88 0 0 -67 c0 -38 -7
-98 -14 -134 -40 -185 -143 -272 -326 -272 -182 0 -277 70 -332 244 -22 71
-23 87 -23 409 0 291 2 343 18 400 52 188 154 264 347 257 72 -2 107 -9 145
-26z m-1581 -2 c21 -7 60 -33 87 -56 65 -59 90 -126 97 -259 6 -140 -12 -201
-81 -270 -67 -67 -121 -84 -269 -84 l-108 0 0 -300 0 -300 -90 0 -90 0 0 646
0 646 208 -5 c138 -3 220 -8 246 -18z m728 -8 c46 -15 81 -35 116 -66 71 -64
87 -110 87 -255 0 -99 -3 -122 -23 -165 -26 -56 -63 -100 -104 -121 l-26 -14
54 -167 c29 -93 75 -237 102 -320 l50 -153 -92 0 -92 0 -62 203 c-34 111 -76
246 -93 300 l-30 97 -69 0 -70 0 0 -300 0 -300 -90 0 -90 0 0 646 0 646 183
-4 c149 -4 194 -9 249 -27z"/>
<path d="M410 1616 l0 -206 78 0 c153 1 197 44 197 195 0 157 -44 205 -192
213 l-83 5 0 -207z"/>
<path d="M1160 1616 l0 -206 68 0 c81 0 145 28 179 78 42 63 40 192 -4 259
-26 39 -89 66 -170 71 l-73 5 0 -207z"/>
</g>
</svg>
